<svg version="1.1" viewBox="0.0 0.0 384.0 384.0" fill="none" stroke="none" stroke-linecap="square" stroke-miterlimit="10" xmlns:xlink="http://www.w3.org/1999/xlink" xmlns="http://www.w3.org/2000/svg"><clipPath id="p.0"><path d="m0 0l384.0 0l0 384.0l-384.0 0l0 -384.0z" clip-rule="nonzero"/></clipPath><g clip-path="url(#p.0)"><path fill="#000000" fill-opacity="0.0" d="m0 0l384.0 0l0 384.0l-384.0 0z" fill-rule="evenodd"/><path fill="#000000" fill-opacity="0.0" d="m224.01897 128.00111c0 16.0 -8.0 24.0 -16.0 32.0c-8.0 8.0 -16.0 16.0 -16.0 32.0" fill-rule="evenodd"/><path stroke="#595959" stroke-width="1.0" stroke-linejoin="round" stroke-linecap="butt" d="m224.01897 128.00111c0 16.0 -8.0 24.0 -16.0 32.0c-8.0 8.0 -16.0 16.0 -16.0 32.0" fill-rule="evenodd"/><path fill="#000000" fill-opacity="0.0" d="m160.05074 128.00111c0 16.0 8.0 24.0 16.0 32.0c8.0 8.0 16.0 16.0 16.0 32.0" fill-rule="evenodd"/><path stroke="#595959" stroke-width="1.0" stroke-linejoin="round" stroke-linecap="butt" d="m160.05074 128.00111c0 16.0 8.0 24.0 16.0 32.0c8.0 8.0 16.0 16.0 16.0 32.0" fill-rule="evenodd"/><path fill="#000000" fill-opacity="0.0" d="m224.01897 128.00111c-0.007873535 -32.000008 -8.01181 -48.000008 -16.015747 -64.00001c-8.003937 -15.999996 -16.007874 -31.999996 -16.015747 -63.999996" fill-rule="evenodd"/><path stroke="#595959" stroke-width="1.0" stroke-linejoin="round" stroke-linecap="butt" d="m224.01897 128.00111c-0.007873535 -32.000008 -8.01181 -48.000008 -16.015747 -64.00001c-8.003937 -15.999996 -16.007874 -31.999996 -16.015747 -63.999996" fill-rule="evenodd"/><path fill="#000000" fill-opacity="0.0" d="m160.05074 128.00111c-0.007873535 -32.000008 7.9881897 -48.000008 15.984253 -64.00001c7.996063 -15.999996 15.992126 -31.999996 15.984253 -63.999996" fill-rule="evenodd"/><path stroke="#595959" stroke-width="1.0" stroke-linejoin="round" stroke-linecap="butt" d="m160.05074 128.00111c-0.007873535 -32.000008 7.9881897 -48.000008 15.984253 -64.00001c7.996063 -15.999996 15.992126 -31.999996 15.984253 -63.999996" fill-rule="evenodd"/><path fill="#000000" fill-opacity="0.0" d="m224.01897 64.00111c0 -15.999996 -8.0 -23.999996 -16.0 -31.999996c-8.0 -8.0 -16.0 -16.0 -16.0 -32.0" fill-rule="evenodd"/><path stroke="#595959" stroke-width="1.0" stroke-linejoin="round" stroke-linecap="butt" d="m224.01897 64.00111c0 -15.999996 -8.0 -23.999996 -16.0 -31.999996c-8.0 -8.0 -16.0 -16.0 -16.0 -32.0" fill-rule="evenodd"/><path fill="#000000" fill-opacity="0.0" d="m160.05074 64.00111c0 -15.999996 8.0 -23.999996 16.0 -31.999996c8.0 -8.0 16.0 -16.0 16.0 -32.0" fill-rule="evenodd"/><path stroke="#595959" stroke-width="1.0" stroke-linejoin="round" stroke-linecap="butt" d="m160.05074 64.00111c0 -15.999996 8.0 -23.999996 16.0 -31.999996c8.0 -8.0 16.0 -16.0 16.0 -32.0" fill-rule="evenodd"/><path fill="#000000" fill-opacity="0.0" d="m224.01897 64.00111c-0.007873535 32.0 -8.01181 48.0 -16.015747 64.00001c-8.003937 16.0 -16.007874 32.0 -16.015747 64.0" fill-rule="evenodd"/><path stroke="#595959" stroke-width="1.0" stroke-linejoin="round" stroke-linecap="butt" d="m224.01897 64.00111c-0.007873535 32.0 -8.01181 48.0 -16.015747 64.00001c-8.003937 16.0 -16.007874 32.0 -16.015747 64.0" fill-rule="evenodd"/><path fill="#000000" fill-opacity="0.0" d="m160.05074 64.00111c-0.007873535 32.0 7.9881897 48.0 15.984253 64.00001c7.996063 16.0 15.992126 32.0 15.984253 64.0" fill-rule="evenodd"/><path stroke="#595959" stroke-width="1.0" stroke-linejoin="round" stroke-linecap="butt" d="m160.05074 64.00111c-0.007873535 32.0 7.9881897 48.0 15.984253 64.00001c7.996063 16.0 15.992126 32.0 15.984253 64.0" fill-rule="evenodd"/><path fill="#000000" fill-opacity="0.0" d="m224.01897 320.0011c0 16.0 -8.0 24.0 -16.0 32.0c-8.0 8.0 -16.0 16.0 -16.0 32.0" fill-rule="evenodd"/><path stroke="#595959" stroke-width="1.0" stroke-linejoin="round" stroke-linecap="butt" d="m224.01897 320.0011c0 16.0 -8.0 24.0 -16.0 32.0c-8.0 8.0 -16.0 16.0 -16.0 32.0" fill-rule="evenodd"/><path fill="#000000" fill-opacity="0.0" d="m160.05074 320.0011c0 16.0 8.0 24.0 16.0 32.0c8.0 8.0 16.0 16.0 16.0 32.0" fill-rule="evenodd"/><path stroke="#595959" stroke-width="1.0" stroke-linejoin="round" stroke-linecap="butt" d="m160.05074 320.0011c0 16.0 8.0 24.0 16.0 32.0c8.0 8.0 16.0 16.0 16.0 32.0" fill-rule="evenodd"/><path fill="#000000" fill-opacity="0.0" d="m224.01897 320.0011c-0.007873535 -32.0 -8.01181 -48.0 -16.015747 -64.0c-8.003937 -15.999985 -16.007874 -31.999985 -16.015747 -63.999985" fill-rule="evenodd"/><path stroke="#595959" stroke-width="1.0" stroke-linejoin="round" stroke-linecap="butt" d="m224.01897 320.0011c-0.007873535 -32.0 -8.01181 -48.0 -16.015747 -64.0c-8.003937 -15.999985 -16.007874 -31.999985 -16.015747 -63.999985" fill-rule="evenodd"/><path fill="#000000" fill-opacity="0.0" d="m160.05074 320.0011c-0.007873535 -32.0 7.9881897 -48.0 15.984253 -64.0c7.996063 -15.999985 15.992126 -31.999985 15.984253 -63.999985" fill-rule="evenodd"/><path stroke="#595959" stroke-width="1.0" stroke-linejoin="round" stroke-linecap="butt" d="m160.05074 320.0011c-0.007873535 -32.0 7.9881897 -48.0 15.984253 -64.0c7.996063 -15.999985 15.992126 -31.999985 15.984253 -63.999985" fill-rule="evenodd"/><path fill="#000000" fill-opacity="0.0" d="m224.01897 256.0011c0 -15.999985 -8.0 -23.999985 -16.0 -31.999985c-8.0 -8.0 -16.0 -16.0 -16.0 -32.0" fill-rule="evenodd"/><path stroke="#595959" stroke-width="1.0" stroke-linejoin="round" stroke-linecap="butt" d="m224.01897 256.0011c0 -15.999985 -8.0 -23.999985 -16.0 -31.999985c-8.0 -8.0 -16.0 -16.0 -16.0 -32.0" fill-rule="evenodd"/><path fill="#000000" fill-opacity="0.0" d="m160.05074 256.0011c0 -15.999985 8.0 -23.999985 16.0 -31.999985c8.0 -8.0 16.0 -16.0 16.0 -32.0" fill-rule="evenodd"/><path stroke="#595959" stroke-width="1.0" stroke-linejoin="round" stroke-linecap="butt" d="m160.05074 256.0011c0 -15.999985 8.0 -23.999985 16.0 -31.999985c8.0 -8.0 16.0 -16.0 16.0 -32.0" fill-rule="evenodd"/><path fill="#000000" fill-opacity="0.0" d="m224.01897 256.0011c-0.007873535 32.0 -8.01181 48.0 -16.015747 64.0c-8.003937 16.0 -16.007874 32.0 -16.015747 64.0" fill-rule="evenodd"/><path stroke="#595959" stroke-width="1.0" stroke-linejoin="round" stroke-linecap="butt" d="m224.01897 256.0011c-0.007873535 32.0 -8.01181 48.0 -16.015747 64.0c-8.003937 16.0 -16.007874 32.0 -16.015747 64.0" fill-rule="evenodd"/><path fill="#000000" fill-opacity="0.0" d="m160.05074 256.0011c-0.007873535 32.0 7.9881897 48.0 15.984253 64.0c7.996063 16.0 15.992126 32.0 15.984253 64.0" fill-rule="evenodd"/><path stroke="#595959" stroke-width="1.0" stroke-linejoin="round" stroke-linecap="butt" d="m160.05074 256.0011c-0.007873535 32.0 7.9881897 48.0 15.984253 64.0c7.996063 16.0 15.992126 32.0 15.984253 64.0" fill-rule="evenodd"/><path fill="#000000" fill-opacity="0.0" d="m231.43248 251.7216c-13.858261 -8.0 -16.7874 -18.929123 -19.716537 -29.858261c-2.9291382 -10.929138 -5.858261 -21.858276 -19.716537 -29.858276" fill-rule="evenodd"/><path stroke="#595959" stroke-width="1.0" stroke-linejoin="round" stroke-linecap="butt" d="m231.43248 251.7216c-13.858261 -8.0 -16.7874 -18.929123 -19.716537 -29.858261c-2.9291382 -10.929138 -5.858261 -21.858276 -19.716537 -29.858276" fill-rule="evenodd"/><path fill="#000000" fill-opacity="0.0" d="m263.4166 196.32349c-13.858261 -8.0 -24.7874 -5.070862 -35.716537 -2.1417236c-10.929138 2.9291382 -21.858261 5.858261 -35.716537 -2.141739" fill-rule="evenodd"/><path stroke="#595959" stroke-width="1.0" stroke-linejoin="round" stroke-linecap="butt" d="m263.4166 196.32349c-13.858261 -8.0 -24.7874 -5.070862 -35.716537 -2.1417236c-10.929138 2.9291382 -21.858261 5.858261 -35.716537 -2.141739" fill-rule="evenodd"/><path fill="#000000" fill-opacity="0.0" d="m231.43248 251.7216c27.716537 15.992142 45.574814 17.059067 63.43306 18.125992c17.858276 1.066925 35.716553 2.13385 63.433075 18.125977" fill-rule="evenodd"/><path stroke="#595959" stroke-width="1.0" stroke-linejoin="round" stroke-linecap="butt" d="m231.43248 251.7216c27.716537 15.992142 45.574814 17.059067 63.43306 18.125992c17.858276 1.066925 35.716553 2.13385 63.433075 18.125977" fill-rule="evenodd"/><path fill="#000000" fill-opacity="0.0" d="m263.4166 196.32349c27.716522 15.992126 37.5748 30.917328 47.433075 45.84253c9.858276 14.925201 19.716522 29.850403 47.433075 45.84253" fill-rule="evenodd"/><path stroke="#595959" stroke-width="1.0" stroke-linejoin="round" stroke-linecap="butt" d="m263.4166 196.32349c27.716522 15.992126 37.5748 30.917328 47.433075 45.84253c9.858276 14.925201 19.716522 29.850403 47.433075 45.84253" fill-rule="evenodd"/><path fill="#000000" fill-opacity="0.0" d="m286.8581 283.72162c13.858276 8.0 24.787415 5.070862 35.716553 2.1417236c10.929138 -2.9291382 21.858276 -5.8582764 35.716522 2.1417236" fill-rule="evenodd"/><path stroke="#595959" stroke-width="1.0" stroke-linejoin="round" stroke-linecap="butt" d="m286.8581 283.72162c13.858276 8.0 24.787415 5.070862 35.716553 2.1417236c10.929138 -2.9291382 21.858276 -5.8582764 35.716522 2.1417236" fill-rule="evenodd"/><path fill="#000000" fill-opacity="0.0" d="m318.84222 228.32349c13.858276 8.0 16.787384 18.929138 19.716522 29.858276c2.9291382 10.929138 5.8582764 21.858276 19.716553 29.858276" fill-rule="evenodd"/><path stroke="#595959" stroke-width="1.0" stroke-linejoin="round" stroke-linecap="butt" d="m318.84222 228.32349c13.858276 8.0 16.787384 18.929138 19.716522 29.858276c2.9291382 10.929138 5.8582764 21.858276 19.716553 29.858276" fill-rule="evenodd"/><path fill="#000000" fill-opacity="0.0" d="m286.8581 283.72162c-27.708649 -16.007874 -37.562973 -30.940948 -47.417313 -45.874023c-9.854324 -14.933075 -19.708664 -29.86615 -47.417328 -45.874023" fill-rule="evenodd"/><path stroke="#595959" stroke-width="1.0" stroke-linejoin="round" stroke-linecap="butt" d="m286.8581 283.72162c-27.708649 -16.007874 -37.562973 -30.940948 -47.417313 -45.874023c-9.854324 -14.933075 -19.708664 -29.86615 -47.417328 -45.874023" fill-rule="evenodd"/><path fill="#000000" fill-opacity="0.0" d="m318.84222 228.32349c-27.70868 -16.007874 -45.56299 -17.082672 -63.417328 -18.15747c-17.854324 -1.0747986 -35.708664 -2.1496124 -63.417328 -18.157486" fill-rule="evenodd"/><path stroke="#595959" stroke-width="1.0" stroke-linejoin="round" stroke-linecap="butt" d="m318.84222 228.32349c-27.70868 -16.007874 -45.56299 -17.082672 -63.417328 -18.15747c-17.854324 -1.0747986 -35.708664 -2.1496124 -63.417328 -18.157486" fill-rule="evenodd"/><path fill="#000000" fill-opacity="0.0" d="m65.1556 155.7216c-13.858269 -8.0 -16.7874 -18.929123 -19.716534 -29.858261c-2.9291344 -10.929138 -5.8582687 -21.858269 -19.716537 -29.858269" fill-rule="evenodd"/><path stroke="#595959" stroke-width="1.0" stroke-linejoin="round" stroke-linecap="butt" d="m65.1556 155.7216c-13.858269 -8.0 -16.7874 -18.929123 -19.716534 -29.858261c-2.9291344 -10.929138 -5.8582687 -21.858269 -19.716537 -29.858269" fill-rule="evenodd"/><path fill="#000000" fill-opacity="0.0" d="m97.13972 100.323494c-13.858269 -8.0 -24.7874 -5.0708694 -35.716534 -2.1417313c-10.929134 2.9291306 -21.858269 5.8582687 -35.716537 -2.1417313" fill-rule="evenodd"/><path stroke="#595959" stroke-width="1.0" stroke-linejoin="round" stroke-linecap="butt" d="m97.13972 100.323494c-13.858269 -8.0 -24.7874 -5.0708694 -35.716534 -2.1417313c-10.929134 2.9291306 -21.858269 5.8582687 -35.716537 -2.1417313" fill-rule="evenodd"/><path fill="#000000" fill-opacity="0.0" d="m65.1556 155.7216c27.716537 15.992126 45.574806 17.059052 63.433067 18.125992c17.858276 1.066925 35.716537 2.13385 63.433075 18.125977" fill-rule="evenodd"/><path stroke="#595959" stroke-width="1.0" stroke-linejoin="round" stroke-linecap="butt" d="m65.1556 155.7216c27.716537 15.992126 45.574806 17.059052 63.433067 18.125992c17.858276 1.066925 35.716537 2.13385 63.433075 18.125977" fill-rule="evenodd"/><path fill="#000000" fill-opacity="0.0" d="m97.13972 100.323494c27.716537 15.992126 37.574806 30.91732 47.433067 45.84252c9.858276 14.925201 19.716537 29.850388 47.433075 45.842514" fill-rule="evenodd"/><path stroke="#595959" stroke-width="1.0" stroke-linejoin="round" stroke-linecap="butt" d="m97.13972 100.323494c27.716537 15.992126 37.574806 30.91732 47.433067 45.84252c9.858276 14.925201 19.716537 29.850388 47.433075 45.842514" fill-rule="evenodd"/><path fill="#000000" fill-opacity="0.0" d="m120.58123 187.7216c13.858269 8.0 24.787407 5.070877 35.71653 2.141739c10.929138 -2.9291382 21.858276 -5.8582764 35.716537 2.1417236" fill-rule="evenodd"/><path stroke="#595959" stroke-width="1.0" stroke-linejoin="round" stroke-linecap="butt" d="m120.58123 187.7216c13.858269 8.0 24.787407 5.070877 35.71653 2.141739c10.929138 -2.9291382 21.858276 -5.8582764 35.716537 2.1417236" fill-rule="evenodd"/><path fill="#000000" fill-opacity="0.0" d="m152.56534 132.32349c13.858276 8.0 16.787415 18.929138 19.716537 29.858276c2.9291382 10.929138 5.8582764 21.858261 19.716537 29.858261" fill-rule="evenodd"/><path stroke="#595959" stroke-width="1.0" stroke-linejoin="round" stroke-linecap="butt" d="m152.56534 132.32349c13.858276 8.0 16.787415 18.929138 19.716537 29.858276c2.9291382 10.929138 5.8582764 21.858261 19.716537 29.858261" fill-rule="evenodd"/><path fill="#000000" fill-opacity="0.0" d="m120.58123 187.7216c-27.708664 -16.007874 -37.562996 -30.940933 -47.417328 -45.87401c-9.854328 -14.933075 -19.70866 -29.866142 -47.41732 -45.874016" fill-rule="evenodd"/><path stroke="#595959" stroke-width="1.0" stroke-linejoin="round" stroke-linecap="butt" d="m120.58123 187.7216c-27.708664 -16.007874 -37.562996 -30.940933 -47.417328 -45.87401c-9.854328 -14.933075 -19.70866 -29.866142 -47.41732 -45.874016" fill-rule="evenodd"/><path fill="#000000" fill-opacity="0.0" d="m152.56534 132.32349c-27.708656 -16.007866 -45.56299 -17.082672 -63.41732 -18.15747c-17.854324 -1.0748062 -35.70866 -2.1496048 -63.41732 -18.157486" fill-rule="evenodd"/><path stroke="#595959" stroke-width="1.0" stroke-linejoin="round" stroke-linecap="butt" d="m152.56534 132.32349c-27.708656 -16.007866 -45.56299 -17.082672 -63.41732 -18.15747c-17.854324 -1.0748062 -35.70866 -2.1496048 -63.41732 -18.157486" fill-rule="evenodd"/><path fill="#000000" fill-opacity="0.0" d="m120.574524 196.2824c13.858261 -8.0 24.7874 -5.0787354 35.716537 -2.157486c10.929123 2.9212646 21.858261 5.8425293 35.716537 -2.1574707" fill-rule="evenodd"/><path stroke="#595959" stroke-width="1.0" stroke-linejoin="round" stroke-linecap="butt" d="m120.574524 196.2824c13.858261 -8.0 24.7874 -5.0787354 35.716537 -2.157486c10.929123 2.9212646 21.858261 5.8425293 35.716537 -2.1574707" fill-rule="evenodd"/><path fill="#000000" fill-opacity="0.0" d="m152.55864 251.68051c13.858261 -8.0 16.7874 -18.921265 19.716537 -29.84253c2.929123 -10.921249 5.858261 -21.842514 19.716537 -29.842514" fill-rule="evenodd"/><path stroke="#595959" stroke-width="1.0" stroke-linejoin="round" stroke-linecap="butt" d="m152.55864 251.68051c13.858261 -8.0 16.7874 -18.921265 19.716537 -29.84253c2.929123 -10.921249 5.858261 -21.842514 19.716537 -29.842514" fill-rule="evenodd"/><path fill="#000000" fill-opacity="0.0" d="m120.574524 196.2824c-27.708664 16.007874 -37.562996 30.933075 -47.417328 45.85826c-9.854328 14.925201 -19.708656 29.850403 -47.41732 45.858276" fill-rule="evenodd"/><path stroke="#595959" stroke-width="1.0" stroke-linejoin="round" stroke-linecap="butt" d="m120.574524 196.2824c-27.708664 16.007874 -37.562996 30.933075 -47.417328 45.85826c-9.854328 14.925201 -19.708656 29.850403 -47.41732 45.858276" fill-rule="evenodd"/><path fill="#000000" fill-opacity="0.0" d="m152.55864 251.68051c-27.708664 16.007874 -45.562996 17.090546 -63.417328 18.173218c-17.854324 1.0826721 -35.708656 2.1653748 -63.41732 18.173248" fill-rule="evenodd"/><path stroke="#595959" stroke-width="1.0" stroke-linejoin="round" stroke-linecap="butt" d="m152.55864 251.68051c-27.708664 16.007874 -45.562996 17.090546 -63.417328 18.173218c-17.854324 1.0826721 -35.708656 2.1653748 -63.41732 18.173248" fill-rule="evenodd"/><path fill="#000000" fill-opacity="0.0" d="m65.148895 228.2824c-13.858265 8.0 -16.7874 18.921265 -19.716534 29.842514c-2.9291344 10.921265 -5.8582687 21.84253 -19.716536 29.84253" fill-rule="evenodd"/><path stroke="#595959" stroke-width="1.0" stroke-linejoin="round" stroke-linecap="butt" d="m65.148895 228.2824c-13.858265 8.0 -16.7874 18.921265 -19.716534 29.842514c-2.9291344 10.921265 -5.8582687 21.84253 -19.716536 29.84253" fill-rule="evenodd"/><path fill="#000000" fill-opacity="0.0" d="m97.13301 283.6805c-13.858269 8.0 -24.7874 5.0787354 -35.716534 2.1574707c-10.929134 -2.9212646 -21.858269 -5.8425293 -35.716537 2.1574707" fill-rule="evenodd"/><path stroke="#595959" stroke-width="1.0" stroke-linejoin="round" stroke-linecap="butt" d="m97.13301 283.6805c-13.858269 8.0 -24.7874 5.0787354 -35.716534 2.1574707c-10.929134 -2.9212646 -21.858269 -5.8425293 -35.716537 2.1574707" fill-rule="evenodd"/><path fill="#000000" fill-opacity="0.0" d="m65.148895 228.2824c27.716537 -15.992126 45.574806 -17.066925 63.433075 -18.141739c17.858261 -1.0747986 35.716537 -2.1495972 63.433075 -18.141724" fill-rule="evenodd"/><path stroke="#595959" stroke-width="1.0" stroke-linejoin="round" stroke-linecap="butt" d="m65.148895 228.2824c27.716537 -15.992126 45.574806 -17.066925 63.433075 -18.141739c17.858261 -1.0747986 35.716537 -2.1495972 63.433075 -18.141724" fill-rule="evenodd"/><path fill="#000000" fill-opacity="0.0" d="m97.13301 283.6805c27.716537 -15.992126 37.5748 -30.909454 47.433075 -45.826782c9.858261 -14.917313 19.716537 -29.83464 47.433075 -45.826767" fill-rule="evenodd"/><path stroke="#595959" stroke-width="1.0" stroke-linejoin="round" stroke-linecap="butt" d="m97.13301 283.6805c27.716537 -15.992126 37.5748 -30.909454 47.433075 -45.826782c9.858261 -14.917313 19.716537 -29.83464 47.433075 -45.826767" fill-rule="evenodd"/><path fill="#000000" fill-opacity="0.0" d="m286.8514 100.282394c13.858246 -8.0 24.787384 -5.078743 35.716522 -2.157486c10.929138 2.9212646 21.858276 5.8425217 35.716553 -2.1574783" fill-rule="evenodd"/><path stroke="#595959" stroke-width="1.0" stroke-linejoin="round" stroke-linecap="butt" d="m286.8514 100.282394c13.858246 -8.0 24.787384 -5.078743 35.716522 -2.157486c10.929138 2.9212646 21.858276 5.8425217 35.716553 -2.1574783" fill-rule="evenodd"/><path fill="#000000" fill-opacity="0.0" d="m318.8355 155.68051c13.858276 -8.0 16.787415 -18.921265 19.716553 -29.842522c2.9291077 -10.921265 5.858246 -21.842522 19.716522 -29.842522" fill-rule="evenodd"/><path stroke="#595959" stroke-width="1.0" stroke-linejoin="round" stroke-linecap="butt" d="m318.8355 155.68051c13.858276 -8.0 16.787415 -18.921265 19.716553 -29.842522c2.9291077 -10.921265 5.858246 -21.842522 19.716522 -29.842522" fill-rule="evenodd"/><path fill="#000000" fill-opacity="0.0" d="m286.8514 100.282394c-27.70868 16.007874 -37.563004 30.933075 -47.417328 45.85826c-9.85434 14.925201 -19.708664 29.850403 -47.417328 45.858276" fill-rule="evenodd"/><path stroke="#595959" stroke-width="1.0" stroke-linejoin="round" stroke-linecap="butt" d="m286.8514 100.282394c-27.70868 16.007874 -37.563004 30.933075 -47.417328 45.85826c-9.85434 14.925201 -19.708664 29.850403 -47.417328 45.858276" fill-rule="evenodd"/><path fill="#000000" fill-opacity="0.0" d="m318.8355 155.68051c-27.708649 16.007874 -45.56299 17.090546 -63.417313 18.173218c-17.85434 1.0826874 -35.708664 2.1653595 -63.417328 18.173233" fill-rule="evenodd"/><path stroke="#595959" stroke-width="1.0" stroke-linejoin="round" stroke-linecap="butt" d="m318.8355 155.68051c-27.708649 16.007874 -45.56299 17.090546 -63.417313 18.173218c-17.85434 1.0826874 -35.708664 2.1653595 -63.417328 18.173233" fill-rule="evenodd"/><path fill="#000000" fill-opacity="0.0" d="m231.42578 132.2824c-13.858276 8.0 -16.787415 18.921265 -19.716537 29.842514c-2.9291382 10.921265 -5.8582764 21.84253 -19.716537 29.84253" fill-rule="evenodd"/><path stroke="#595959" stroke-width="1.0" stroke-linejoin="round" stroke-linecap="butt" d="m231.42578 132.2824c-13.858276 8.0 -16.787415 18.921265 -19.716537 29.842514c-2.9291382 10.921265 -5.8582764 21.84253 -19.716537 29.84253" fill-rule="evenodd"/><path fill="#000000" fill-opacity="0.0" d="m263.40988 187.68051c-13.858261 8.0 -24.7874 5.0787354 -35.716522 2.1574707c-10.929138 -2.9212494 -21.858276 -5.842514 -35.716537 2.157486" fill-rule="evenodd"/><path stroke="#595959" stroke-width="1.0" stroke-linejoin="round" stroke-linecap="butt" d="m263.40988 187.68051c-13.858261 8.0 -24.7874 5.0787354 -35.716522 2.1574707c-10.929138 -2.9212494 -21.858276 -5.842514 -35.716537 2.157486" fill-rule="evenodd"/><path fill="#000000" fill-opacity="0.0" d="m231.42578 132.2824c27.716522 -15.992126 45.5748 -17.066933 63.433075 -18.141731c17.858246 -1.0748062 35.716522 -2.1496124 63.433044 -18.141739" fill-rule="evenodd"/><path stroke="#595959" stroke-width="1.0" stroke-linejoin="round" stroke-linecap="butt" d="m231.42578 132.2824c27.716522 -15.992126 45.5748 -17.066933 63.433075 -18.141731c17.858246 -1.0748062 35.716522 -2.1496124 63.433044 -18.141739" fill-rule="evenodd"/><path fill="#000000" fill-opacity="0.0" d="m263.40988 187.68051c27.716553 -15.992126 37.5748 -30.909454 47.433075 -45.826782c9.858276 -14.91732 19.716553 -29.83464 47.433075 -45.826767" fill-rule="evenodd"/><path stroke="#595959" stroke-width="1.0" stroke-linejoin="round" stroke-linecap="butt" d="m263.40988 187.68051c27.716553 -15.992126 37.5748 -30.909454 47.433075 -45.826782c9.858276 -14.91732 19.716553 -29.83464 47.433075 -45.826767" fill-rule="evenodd"/></g></svg>